<?xml version="1.0" standalone="no"?><!DOCTYPE svg PUBLIC "-//W3C//DTD SVG 1.1//EN" "http://www.w3.org/Graphics/SVG/1.1/DTD/svg11.dtd"><svg t="1514874998772" class="icon" style="" viewBox="0 0 1024 1024" version="1.1" xmlns="http://www.w3.org/2000/svg" p-id="1860" xmlns:xlink="http://www.w3.org/1999/xlink" width="10" height="10"><defs><style type="text/css"></style></defs><path d="M864 448 512 448 512 96C512 78.08 497.92 64 480 64 462.08 64 448 78.08 448 96L448 448 96 448C78.08 448 64 462.08 64 480 64 497.92 78.08 512 96 512L448 512l0 352C448 881.92 462.08 896 480 896 497.92 896 512 881.92 512 864L512 512l352 0C881.92 512 896 497.92 896 480 896 462.08 881.92 448 864 448z" p-id="1861" fill="#999999"></path></svg>